<svg width="100%" viewBox="0 0 680 220" xmlns="http://www.w3.org/2000/svg">
<defs>
  <linearGradient id="bg" x1="0" y1="0" x2="1" y2="1">
    <stop offset="0%" stop-color="#00020a"/>
    <stop offset="40%" stop-color="#020510"/>
    <stop offset="100%" stop-color="#080218"/>
  </linearGradient>
  <linearGradient id="nameGrad" x1="0" y1="0" x2="1" y2="0">
    <stop offset="0%" stop-color="#00ffea"/>
    <stop offset="25%" stop-color="#00cfff"/>
    <stop offset="50%" stop-color="#ffffff"/>
    <stop offset="75%" stop-color="#c77dff"/>
    <stop offset="100%" stop-color="#7b2fff"/>
  </linearGradient>
  <linearGradient id="topBeam" x1="0" y1="0" x2="1" y2="0">
    <stop offset="0%" stop-color="#00ffea" stop-opacity="0"/>
    <stop offset="20%" stop-color="#00ffea" stop-opacity="1"/>
    <stop offset="50%" stop-color="#ffffff" stop-opacity="0.8"/>
    <stop offset="80%" stop-color="#7b2fff" stop-opacity="1"/>
    <stop offset="100%" stop-color="#7b2fff" stop-opacity="0"/>
  </linearGradient>
  <linearGradient id="botBeam" x1="0" y1="0" x2="1" y2="0">
    <stop offset="0%" stop-color="#7b2fff" stop-opacity="0"/>
    <stop offset="20%" stop-color="#7b2fff" stop-opacity="0.8"/>
    <stop offset="50%" stop-color="#00cfff" stop-opacity="0.6"/>
    <stop offset="80%" stop-color="#00ffea" stop-opacity="0.8"/>
    <stop offset="100%" stop-color="#00ffea" stop-opacity="0"/>
  </linearGradient>
  <linearGradient id="auraL" x1="0" y1="0" x2="1" y2="0">
    <stop offset="0%" stop-color="#00ffea" stop-opacity="0.12"/>
    <stop offset="100%" stop-color="#00ffea" stop-opacity="0"/>
  </linearGradient>
  <linearGradient id="auraR" x1="0" y1="0" x2="1" y2="0">
    <stop offset="0%" stop-color="#7b2fff" stop-opacity="0"/>
    <stop offset="100%" stop-color="#7b2fff" stop-opacity="0.14"/>
  </linearGradient>
  <linearGradient id="scanline" x1="0" y1="0" x2="0" y2="1">
    <stop offset="0%" stop-color="#00ffea" stop-opacity="0"/>
    <stop offset="50%" stop-color="#00ffea" stop-opacity="0.04"/>
    <stop offset="100%" stop-color="#00ffea" stop-opacity="0"/>
  </linearGradient>
  <linearGradient id="subGrad" x1="0" y1="0" x2="1" y2="0">
    <stop offset="0%" stop-color="#00ffea" stop-opacity="0.8"/>
    <stop offset="50%" stop-color="#c4b5fd" stop-opacity="1"/>
    <stop offset="100%" stop-color="#7b2fff" stop-opacity="0.8"/>
  </linearGradient>
  <linearGradient id="vlineL" x1="0" y1="0" x2="0" y2="1">
    <stop offset="0%" stop-color="#00ffea" stop-opacity="0"/>
    <stop offset="40%" stop-color="#00ffea" stop-opacity="0.6"/>
    <stop offset="100%" stop-color="#00ffea" stop-opacity="0"/>
  </linearGradient>
  <linearGradient id="vlineR" x1="0" y1="0" x2="0" y2="1">
    <stop offset="0%" stop-color="#7b2fff" stop-opacity="0"/>
    <stop offset="40%" stop-color="#7b2fff" stop-opacity="0.6"/>
    <stop offset="100%" stop-color="#7b2fff" stop-opacity="0"/>
  </linearGradient>
  <filter id="ultraGlow">
    <feGaussianBlur stdDeviation="8" result="b1"/>
    <feGaussianBlur stdDeviation="3" result="b2"/>
    <feGaussianBlur stdDeviation="1" result="b3"/>
    <feMerge><feMergeNode in="b1"/><feMergeNode in="b1"/><feMergeNode in="b2"/><feMergeNode in="b3"/><feMergeNode in="SourceGraphic"/></feMerge>
  </filter>
  <filter id="beamGlow">
    <feGaussianBlur stdDeviation="4" result="blur"/>
    <feMerge><feMergeNode in="blur"/><feMergeNode in="blur"/><feMergeNode in="SourceGraphic"/></feMerge>
  </filter>
  <filter id="dotGlow">
    <feGaussianBlur stdDeviation="2.5" result="blur"/>
    <feMerge><feMergeNode in="blur"/><feMergeNode in="SourceGraphic"/></feMerge>
  </filter>
  <filter id="subtleGlow">
    <feGaussianBlur stdDeviation="1.5" result="blur"/>
    <feMerge><feMergeNode in="blur"/><feMergeNode in="SourceGraphic"/></feMerge>
  </filter>
  <clipPath id="clip">
    <rect width="680" height="220" rx="12"/>
  </clipPath>
</defs>
<g clip-path="url(#clip)">
  <rect width="680" height="220" fill="url(#bg)"/>
  <rect width="300" height="220" fill="url(#auraL)"/>
  <rect x="380" width="300" height="220" fill="url(#auraR)"/>
  <rect width="680" height="220" fill="url(#scanline)"/>
  <line x1="0" y1="22" x2="680" y2="22" stroke="#00ffea" stroke-width="0.25" stroke-opacity="0.04"/>
  <line x1="0" y1="44" x2="680" y2="44" stroke="#00ffea" stroke-width="0.25" stroke-opacity="0.04"/>
  <line x1="0" y1="66" x2="680" y2="66" stroke="#00ffea" stroke-width="0.25" stroke-opacity="0.04"/>
  <line x1="0" y1="88" x2="680" y2="88" stroke="#00ffea" stroke-width="0.25" stroke-opacity="0.04"/>
  <line x1="0" y1="110" x2="680" y2="110" stroke="#00ffea" stroke-width="0.25" stroke-opacity="0.04"/>
  <line x1="0" y1="132" x2="680" y2="132" stroke="#00ffea" stroke-width="0.25" stroke-opacity="0.04"/>
  <line x1="0" y1="154" x2="680" y2="154" stroke="#00ffea" stroke-width="0.25" stroke-opacity="0.04"/>
  <line x1="0" y1="176" x2="680" y2="176" stroke="#00ffea" stroke-width="0.25" stroke-opacity="0.04"/>
  <line x1="0" y1="198" x2="680" y2="198" stroke="#00ffea" stroke-width="0.25" stroke-opacity="0.04"/>
  <circle cx="55" cy="18" r="0.8" fill="#ffffff" fill-opacity="0.4"/>
  <circle cx="120" cy="35" r="0.6" fill="#00ffea" fill-opacity="0.5"/>
  <circle cx="200" cy="12" r="0.7" fill="#ffffff" fill-opacity="0.3"/>
  <circle cx="310" cy="20" r="0.5" fill="#c77dff" fill-opacity="0.5"/>
  <circle cx="420" cy="8" r="0.8" fill="#ffffff" fill-opacity="0.35"/>
  <circle cx="510" cy="30" r="0.6" fill="#7b2fff" fill-opacity="0.5"/>
  <circle cx="600" cy="15" r="0.7" fill="#00ffea" fill-opacity="0.4"/>
  <circle cx="650" cy="40" r="0.5" fill="#ffffff" fill-opacity="0.3"/>
  <circle cx="75" cy="190" r="0.7" fill="#7b2fff" fill-opacity="0.4"/>
  <circle cx="560" cy="195" r="0.6" fill="#00ffea" fill-opacity="0.4"/>
  <circle cx="620" cy="210" r="0.8" fill="#c77dff" fill-opacity="0.35"/>
  <line x1="52" y1="0" x2="52" y2="220" stroke="url(#vlineL)" stroke-width="0.6"/>
  <polyline points="0,42 28,42 28,68 52,68" fill="none" stroke="#00ffea" stroke-width="0.7" stroke-opacity="0.35"/>
  <polyline points="0,90 18,90 18,115 38,115 38,130 52,130" fill="none" stroke="#00ffea" stroke-width="0.6" stroke-opacity="0.28"/>
  <polyline points="0,165 32,165 32,148 52,148" fill="none" stroke="#00ffea" stroke-width="0.5" stroke-opacity="0.22"/>
  <polyline points="0,195 22,195 22,178 52,178" fill="none" stroke="#00ffea" stroke-width="0.4" stroke-opacity="0.18"/>
  <circle cx="28" cy="42" r="2.5" fill="#00ffea" fill-opacity="0.6" filter="url(#dotGlow)"/>
  <circle cx="28" cy="42" r="1" fill="#00ffea" fill-opacity="1"/>
  <circle cx="18" cy="90" r="2" fill="#00ffea" fill-opacity="0.45"/>
  <circle cx="38" cy="115" r="1.8" fill="#00ffea" fill-opacity="0.4"/>
  <circle cx="32" cy="165" r="2" fill="#00ffea" fill-opacity="0.38"/>
  <circle cx="22" cy="195" r="1.5" fill="#00ffea" fill-opacity="0.3"/>
  <polygon points="52,100 62,90 72,100 62,110" fill="none" stroke="#00ffea" stroke-width="1" stroke-opacity="0.6" filter="url(#subtleGlow)"/>
  <polygon points="52,100 62,90 72,100 62,110" fill="#00ffea" fill-opacity="0.05"/>
  <circle cx="62" cy="100" r="2" fill="#00ffea" fill-opacity="0.5"/>
  <polygon points="22,55 28,51 34,55 34,63 28,67 22,63" fill="none" stroke="#00ffea" stroke-width="0.6" stroke-opacity="0.3"/>
  <polygon points="12,138 17,134 22,138 22,144 17,148 12,144" fill="none" stroke="#00ffea" stroke-width="0.5" stroke-opacity="0.25"/>
  <line x1="628" y1="0" x2="628" y2="220" stroke="url(#vlineR)" stroke-width="0.6"/>
  <polyline points="680,42 652,42 652,68 628,68" fill="none" stroke="#7b2fff" stroke-width="0.7" stroke-opacity="0.35"/>
  <polyline points="680,90 662,90 662,115 642,115 642,130 628,130" fill="none" stroke="#7b2fff" stroke-width="0.6" stroke-opacity="0.28"/>
  <polyline points="680,165 648,165 648,148 628,148" fill="none" stroke="#7b2fff" stroke-width="0.5" stroke-opacity="0.22"/>
  <polyline points="680,195 658,195 658,178 628,178" fill="none" stroke="#7b2fff" stroke-width="0.4" stroke-opacity="0.18"/>
  <circle cx="652" cy="42" r="2.5" fill="#7b2fff" fill-opacity="0.6" filter="url(#dotGlow)"/>
  <circle cx="652" cy="42" r="1" fill="#c77dff" fill-opacity="1"/>
  <circle cx="662" cy="90" r="2" fill="#7b2fff" fill-opacity="0.45"/>
  <circle cx="642" cy="115" r="1.8" fill="#7b2fff" fill-opacity="0.4"/>
  <circle cx="648" cy="165" r="2" fill="#7b2fff" fill-opacity="0.38"/>
  <circle cx="658" cy="195" r="1.5" fill="#7b2fff" fill-opacity="0.3"/>
  <polygon points="608,100 618,90 628,100 618,110" fill="none" stroke="#7b2fff" stroke-width="1" stroke-opacity="0.6" filter="url(#subtleGlow)"/>
  <polygon points="608,100 618,90 628,100 618,110" fill="#7b2fff" fill-opacity="0.05"/>
  <circle cx="618" cy="100" r="2" fill="#7b2fff" fill-opacity="0.5"/>
  <polygon points="646,55 652,51 658,55 658,63 652,67 646,63" fill="none" stroke="#7b2fff" stroke-width="0.6" stroke-opacity="0.3"/>
  <polygon points="658,138 663,134 668,138 668,144 663,148 658,144" fill="none" stroke="#7b2fff" stroke-width="0.5" stroke-opacity="0.25"/>
  <polyline points="12,12 12,35 35,35" fill="none" stroke="#00ffea" stroke-width="1.5" stroke-opacity="0.8" filter="url(#subtleGlow)"/>
  <polyline points="668,12 668,35 645,35" fill="none" stroke="#7b2fff" stroke-width="1.5" stroke-opacity="0.8" filter="url(#subtleGlow)"/>
  <polyline points="12,208 12,185 35,185" fill="none" stroke="#00ffea" stroke-width="1.5" stroke-opacity="0.7"/>
  <polyline points="668,208 668,185 645,185" fill="none" stroke="#7b2fff" stroke-width="1.5" stroke-opacity="0.7"/>
  <circle cx="12" cy="12" r="2" fill="#00ffea" fill-opacity="0.7" filter="url(#dotGlow)"/>
  <circle cx="668" cy="12" r="2" fill="#7b2fff" fill-opacity="0.7" filter="url(#dotGlow)"/>
  <circle cx="12" cy="208" r="2" fill="#00ffea" fill-opacity="0.6"/>
  <circle cx="668" cy="208" r="2" fill="#7b2fff" fill-opacity="0.6"/>
  <rect x="0" y="0" width="680" height="2.5" fill="url(#topBeam)" filter="url(#beamGlow)"/>
  <rect x="60" y="3.5" width="560" height="0.6" fill="url(#topBeam)" fill-opacity="0.35"/>
  <rect x="0" y="217.5" width="680" height="2.5" fill="url(#botBeam)" filter="url(#beamGlow)"/>
  <rect x="60" y="215.8" width="560" height="0.6" fill="url(#botBeam)" fill-opacity="0.35"/>
  <rect x="0" y="0" width="680" height="3" fill="#00ffea" fill-opacity="0.06">
    <animateTransform attributeName="transform" type="translate" values="0,0;0,220;0,0" dur="4s" repeatCount="indefinite"/>
  </rect>
  <circle cx="100" cy="50" r="1.2" fill="#00ffea" fill-opacity="0.7" filter="url(#dotGlow)">
    <animate attributeName="cy" values="50;38;50" dur="3.2s" repeatCount="indefinite"/>
    <animate attributeName="fill-opacity" values="0.7;1;0.7" dur="3.2s" repeatCount="indefinite"/>
  </circle>
  <circle cx="170" cy="168" r="0.9" fill="#00cfff" fill-opacity="0.5">
    <animate attributeName="cy" values="168;158;168" dur="4.1s" repeatCount="indefinite"/>
  </circle>
  <circle cx="340" cy="22" r="1.4" fill="#ffffff" fill-opacity="0.5">
    <animate attributeName="cy" values="22;14;22" dur="5s" repeatCount="indefinite"/>
    <animate attributeName="fill-opacity" values="0.5;0.9;0.5" dur="5s" repeatCount="indefinite"/>
  </circle>
  <circle cx="510" cy="170" r="0.9" fill="#c77dff" fill-opacity="0.5">
    <animate attributeName="cy" values="170;160;170" dur="3.7s" repeatCount="indefinite"/>
  </circle>
  <circle cx="580" cy="48" r="1.2" fill="#7b2fff" fill-opacity="0.7" filter="url(#dotGlow)">
    <animate attributeName="cy" values="48;36;48" dur="2.9s" repeatCount="indefinite"/>
    <animate attributeName="fill-opacity" values="0.7;1;0.7" dur="2.9s" repeatCount="indefinite"/>
  </circle>
  <text x="340" y="108" font-family="'Trebuchet MS','Arial Black',sans-serif" font-size="60" font-weight="900" text-anchor="middle" fill="#00ffea" fill-opacity="0.06" letter-spacing="6" filter="url(#ultraGlow)">PRIYANSHU ROY</text>
  <text x="337" y="107" font-family="'Trebuchet MS','Arial Black',sans-serif" font-size="60" font-weight="900" text-anchor="middle" fill="#ff0055" fill-opacity="0.07" letter-spacing="6">PRIYANSHU ROY</text>
  <text x="343" y="109" font-family="'Trebuchet MS','Arial Black',sans-serif" font-size="60" font-weight="900" text-anchor="middle" fill="#0055ff" fill-opacity="0.07" letter-spacing="6">PRIYANSHU ROY</text>
  <text x="340" y="108" font-family="'Trebuchet MS','Arial Black',sans-serif" font-size="60" font-weight="900" text-anchor="middle" fill="url(#nameGrad)" letter-spacing="6" filter="url(#ultraGlow)">PRIYANSHU ROY</text>
  <line x1="130" y1="124" x2="550" y2="124" stroke="url(#subGrad)" stroke-width="0.7" stroke-opacity="0.45"/>
  <polygon points="242,140 247,135 252,140 247,145" fill="#00ffea" fill-opacity="0.5"/>
  <polygon points="336,140 341,135 346,140 341,145" fill="#ffffff" fill-opacity="0.4"/>
  <polygon points="430,140 435,135 440,140 435,145" fill="#7b2fff" fill-opacity="0.5"/>
  <text x="340" y="159" font-family="'Courier New',monospace" font-size="11.5" font-weight="400" text-anchor="middle" fill="url(#subGrad)" letter-spacing="5">FULL-STACK  ·  CYBERSECURITY  ·  AI / ML</text>
  <rect x="0" y="193" width="680" height="27" fill="#000510" fill-opacity="0.92"/>
  <line x1="0" y1="193" x2="680" y2="193" stroke="url(#topBeam)" stroke-width="0.5" stroke-opacity="0.5"/>
  <circle cx="30" cy="207" r="3.5" fill="#00ffea" fill-opacity="0.9" filter="url(#dotGlow)">
    <animate attributeName="r" values="3.5;2.5;3.5" dur="1.5s" repeatCount="indefinite"/>
    <animate attributeName="fill-opacity" values="0.9;0.3;0.9" dur="1.5s" repeatCount="indefinite"/>
  </circle>
  <text x="43" y="212" font-family="'Courier New',monospace" font-size="8.5" fill="#00ffea" fill-opacity="0.75" letter-spacing="2">ONLINE  //  READY</text>
  <text x="340" y="212" font-family="'Courier New',monospace" font-size="8.5" fill="#8899cc" fill-opacity="0.8" text-anchor="middle" letter-spacing="1.5">github.com/Iampriyanshu2503</text>
  <text x="640" y="212" font-family="'Courier New',monospace" font-size="8.5" fill="#7b2fff" fill-opacity="0.75" text-anchor="end" letter-spacing="2">BUILD  //  2503</text>
  <circle cx="653" cy="207" r="3.5" fill="#7b2fff" fill-opacity="0.8" filter="url(#dotGlow)">
    <animate attributeName="r" values="3.5;2.5;3.5" dur="2s" repeatCount="indefinite"/>
    <animate attributeName="fill-opacity" values="0.8;0.2;0.8" dur="2s" repeatCount="indefinite"/>
  </circle>
  <text x="38" y="27" font-family="'Courier New',monospace" font-size="8" fill="#00ffea" fill-opacity="0.55" letter-spacing="1.5">[ SYS v3.0 ]</text>
  <text x="642" y="27" font-family="'Courier New',monospace" font-size="8" fill="#7b2fff" fill-opacity="0.55" text-anchor="end" letter-spacing="1.5">[ FULL STACK ]</text>
</g>
</svg>
