<svg width="100%" viewBox="0 0 680 200" xmlns="http://www.w3.org/2000/svg">
<defs>
  <linearGradient id="bgMain" x1="0" y1="0" x2="1" y2="0">
    <stop offset="0%" stop-color="#020818"/>
    <stop offset="40%" stop-color="#050d20"/>
    <stop offset="100%" stop-color="#020818"/>
  </linearGradient>
  <linearGradient id="cyanGlow" x1="0" y1="0" x2="1" y2="0">
    <stop offset="0%" stop-color="#00fff0" stop-opacity="0"/>
    <stop offset="50%" stop-color="#00fff0" stop-opacity="1"/>
    <stop offset="100%" stop-color="#00fff0" stop-opacity="0"/>
  </linearGradient>
  <linearGradient id="magentaGlow" x1="0" y1="0" x2="1" y2="0">
    <stop offset="0%" stop-color="#ff00cc" stop-opacity="0"/>
    <stop offset="50%" stop-color="#ff00cc" stop-opacity="0.8"/>
    <stop offset="100%" stop-color="#ff00cc" stop-opacity="0"/>
  </linearGradient>
  <linearGradient id="nameGrad" x1="0" y1="0" x2="1" y2="0">
    <stop offset="0%" stop-color="#00fff0"/>
    <stop offset="50%" stop-color="#ffffff"/>
    <stop offset="100%" stop-color="#bf5af2"/>
  </linearGradient>
  <linearGradient id="leftBloom" x1="0" y1="0" x2="1" y2="0">
    <stop offset="0%" stop-color="#00fff0" stop-opacity="0.15"/>
    <stop offset="100%" stop-color="#00fff0" stop-opacity="0"/>
  </linearGradient>
  <linearGradient id="rightBloom" x1="0" y1="0" x2="1" y2="0">
    <stop offset="0%" stop-color="#bf5af2" stop-opacity="0"/>
    <stop offset="100%" stop-color="#bf5af2" stop-opacity="0.15"/>
  </linearGradient>
  <linearGradient id="circuitFade" x1="0" y1="0" x2="0" y2="1">
    <stop offset="0%" stop-color="#00fff0" stop-opacity="0.5"/>
    <stop offset="100%" stop-color="#00fff0" stop-opacity="0"/>
  </linearGradient>
  <linearGradient id="circuitFadeR" x1="0" y1="0" x2="0" y2="1">
    <stop offset="0%" stop-color="#bf5af2" stop-opacity="0.5"/>
    <stop offset="100%" stop-color="#bf5af2" stop-opacity="0"/>
  </linearGradient>
  <filter id="nameBloom">
    <feGaussianBlur stdDeviation="4" result="blur"/>
    <feMerge><feMergeNode in="blur"/><feMergeNode in="blur"/><feMergeNode in="SourceGraphic"/></feMerge>
  </filter>
  <filter id="lineGlow">
    <feGaussianBlur stdDeviation="2" result="blur"/>
    <feMerge><feMergeNode in="blur"/><feMergeNode in="SourceGraphic"/></feMerge>
  </filter>
  <filter id="subtleGlow">
    <feGaussianBlur stdDeviation="1.5" result="blur"/>
    <feMerge><feMergeNode in="blur"/><feMergeNode in="SourceGraphic"/></feMerge>
  </filter>
  <clipPath id="bannerClip">
    <rect x="0" y="0" width="680" height="200" rx="8"/>
  </clipPath>
</defs>
<g clip-path="url(#bannerClip)">
  <rect width="680" height="200" fill="url(#bgMain)"/>
  <rect x="0" y="0" width="200" height="200" fill="url(#leftBloom)"/>
  <rect x="480" y="0" width="200" height="200" fill="url(#rightBloom)"/>
  <line x1="0" y1="160" x2="680" y2="160" stroke="#00fff0" stroke-width="0.3" stroke-opacity="0.12"/>
  <line x1="0" y1="175" x2="680" y2="175" stroke="#00fff0" stroke-width="0.3" stroke-opacity="0.08"/>
  <line x1="60" y1="0" x2="60" y2="200" stroke="#00fff0" stroke-width="0.3" stroke-opacity="0.08"/>
  <line x1="120" y1="0" x2="120" y2="200" stroke="#00fff0" stroke-width="0.3" stroke-opacity="0.06"/>
  <line x1="180" y1="0" x2="180" y2="200" stroke="#00fff0" stroke-width="0.3" stroke-opacity="0.04"/>
  <line x1="620" y1="0" x2="620" y2="200" stroke="#bf5af2" stroke-width="0.3" stroke-opacity="0.08"/>
  <line x1="560" y1="0" x2="560" y2="200" stroke="#bf5af2" stroke-width="0.3" stroke-opacity="0.06"/>
  <line x1="500" y1="0" x2="500" y2="200" stroke="#bf5af2" stroke-width="0.3" stroke-opacity="0.04"/>
  <polyline points="20,30 60,30 60,70 100,70 100,50 140,50" fill="none" stroke="url(#circuitFade)" stroke-width="0.8"/>
  <circle cx="60" cy="30" r="2" fill="#00fff0" fill-opacity="0.6"/>
  <circle cx="60" cy="70" r="2" fill="#00fff0" fill-opacity="0.5"/>
  <circle cx="100" cy="70" r="2" fill="#00fff0" fill-opacity="0.4"/>
  <polyline points="20,120 50,120 50,140 90,140 90,110 130,110" fill="none" stroke="url(#circuitFade)" stroke-width="0.6"/>
  <circle cx="50" cy="120" r="1.5" fill="#00fff0" fill-opacity="0.4"/>
  <polyline points="660,40 620,40 620,75 580,75 580,55 545,55" fill="none" stroke="url(#circuitFadeR)" stroke-width="0.8"/>
  <circle cx="620" cy="40" r="2" fill="#bf5af2" fill-opacity="0.6"/>
  <circle cx="620" cy="75" r="2" fill="#bf5af2" fill-opacity="0.5"/>
  <polyline points="660,130 630,130 630,150 590,150 590,125 555,125" fill="none" stroke="url(#circuitFadeR)" stroke-width="0.6"/>
  <circle cx="630" cy="130" r="1.5" fill="#bf5af2" fill-opacity="0.4"/>
  <polygon points="42,80 50,76 58,80 58,88 50,92 42,88" fill="none" stroke="#00fff0" stroke-width="0.5" stroke-opacity="0.2"/>
  <polygon points="58,68 66,64 74,68 74,76 66,80 58,76" fill="none" stroke="#00fff0" stroke-width="0.5" stroke-opacity="0.15"/>
  <polygon points="622,80 630,76 638,80 638,88 630,92 622,88" fill="none" stroke="#bf5af2" stroke-width="0.5" stroke-opacity="0.2"/>
  <polygon points="606,68 614,64 622,68 622,76 614,80 606,76" fill="none" stroke="#bf5af2" stroke-width="0.5" stroke-opacity="0.15"/>
  <rect x="0" y="0" width="680" height="2" fill="url(#cyanGlow)" fill-opacity="0.9" filter="url(#lineGlow)"/>
  <rect x="0" y="198" width="680" height="2" fill="url(#magentaGlow)" fill-opacity="0.8" filter="url(#lineGlow)"/>
  <line x1="190" y1="60" x2="190" y2="140" stroke="#00fff0" stroke-width="0.5" stroke-opacity="0.35"/>
  <line x1="490" y1="60" x2="490" y2="140" stroke="#bf5af2" stroke-width="0.5" stroke-opacity="0.35"/>
  <polyline points="205,55 196,55 196,145 205,145" fill="none" stroke="#00fff0" stroke-width="1" stroke-opacity="0.5" filter="url(#subtleGlow)"/>
  <polyline points="475,55 484,55 484,145 475,145" fill="none" stroke="#bf5af2" stroke-width="1" stroke-opacity="0.5" filter="url(#subtleGlow)"/>
  <line x1="0" y1="25" x2="680" y2="25" stroke="#ffffff" stroke-width="0.3" stroke-opacity="0.03"/>
  <line x1="0" y1="50" x2="680" y2="50" stroke="#ffffff" stroke-width="0.3" stroke-opacity="0.03"/>
  <line x1="0" y1="75" x2="680" y2="75" stroke="#ffffff" stroke-width="0.3" stroke-opacity="0.03"/>
  <line x1="0" y1="100" x2="680" y2="100" stroke="#ffffff" stroke-width="0.3" stroke-opacity="0.03"/>
  <line x1="0" y1="125" x2="680" y2="125" stroke="#ffffff" stroke-width="0.3" stroke-opacity="0.03"/>
  <line x1="0" y1="150" x2="680" y2="150" stroke="#ffffff" stroke-width="0.3" stroke-opacity="0.03"/>
  <text x="340" y="105" font-family="'Courier New', monospace" font-size="46" font-weight="900" text-anchor="middle" fill="#00fff0" fill-opacity="0.12" letter-spacing="4">PRIYANSHU ROY</text>
  <text x="340" y="105" font-family="'Courier New', monospace" font-size="46" font-weight="900" text-anchor="middle" fill="url(#nameGrad)" letter-spacing="4" filter="url(#nameBloom)">PRIYANSHU ROY</text>
  <text x="342" y="104" font-family="'Courier New', monospace" font-size="46" font-weight="900" text-anchor="middle" fill="#ff00cc" fill-opacity="0.08" letter-spacing="4">PRIYANSHU ROY</text>
  <text x="338" y="106" font-family="'Courier New', monospace" font-size="46" font-weight="900" text-anchor="middle" fill="#00fff0" fill-opacity="0.06" letter-spacing="4">PRIYANSHU ROY</text>
  <circle cx="232" cy="127" r="2" fill="#00fff0" fill-opacity="0.7"/>
  <circle cx="340" cy="127" r="2" fill="#ffffff" fill-opacity="0.5"/>
  <circle cx="448" cy="127" r="2" fill="#bf5af2" fill-opacity="0.7"/>
  <text x="340" y="148" font-family="'Courier New', monospace" font-size="13" font-weight="400" text-anchor="middle" fill="#aaaacc" letter-spacing="3">FULL-STACK DEV  ·  CYBERSECURITY  ·  AI/ML ENGINEER</text>
  <rect x="0" y="183" width="680" height="17" fill="#00050f" fill-opacity="0.8"/>
  <text x="20" y="195" font-family="'Courier New', monospace" font-size="9" fill="#00fff0" fill-opacity="0.6" letter-spacing="1">&gt; SYSTEM ONLINE</text>
  <text x="340" y="195" font-family="'Courier New', monospace" font-size="9" fill="#888899" fill-opacity="0.7" text-anchor="middle" letter-spacing="1">github.com/Iampriyanshu2503</text>
  <text x="660" y="195" font-family="'Courier New', monospace" font-size="9" fill="#bf5af2" fill-opacity="0.6" text-anchor="end" letter-spacing="1">EST. 2503</text>
  <circle cx="120" cy="191" r="2.5" fill="#00fff0" fill-opacity="0.8">
    <animate attributeName="fill-opacity" values="0.8;0.1;0.8" dur="1.4s" repeatCount="indefinite"/>
  </circle>
  <text x="14" y="18" font-family="'Courier New', monospace" font-size="9" fill="#00fff0" fill-opacity="0.45" letter-spacing="1">[ v2.5.0 ]</text>
  <text x="666" y="18" font-family="'Courier New', monospace" font-size="9" fill="#bf5af2" fill-opacity="0.45" text-anchor="end" letter-spacing="1">[ FULL STACK ]</text>
</g>
</svg>
